<svg width="111" height="19" viewBox="0 0 111 19" fill="none" xmlns="http://www.w3.org/2000/svg">
<path d="M0 17.928V0.288001H2.64V8.16L8.688 0.288001H11.904L5.832 8.04L12.768 17.928H9.48L4.08 10.032L2.64 11.808V17.928H0Z" fill="black"/>
<path d="M20.3454 18.168C18.8094 18.168 17.5774 17.856 16.6494 17.232C15.7374 16.608 15.0734 15.712 14.6574 14.544C14.2574 13.376 14.0574 11.992 14.0574 10.392V0.288001H16.7454V10.44C16.7454 12.312 17.0254 13.656 17.5854 14.472C18.1614 15.272 19.0814 15.672 20.3454 15.672C21.6094 15.672 22.5214 15.28 23.0814 14.496C23.6414 13.712 23.9214 12.36 23.9214 10.44V0.288001H26.6334V10.392C26.6334 12.856 26.1214 14.768 25.0974 16.128C24.0734 17.488 22.4894 18.168 20.3454 18.168Z" fill="black"/>
<path d="M42.9594 17.928L32.6394 6.504L32.7114 8.424V17.928H30.0234V0.263999H30.3594L40.7274 11.832L40.6314 9.816V0.288001H43.3194V17.928H42.9594Z" fill="black"/>
<path d="M51.1185 18.168C50.4465 18.168 49.7825 18.088 49.1265 17.928C48.4705 17.752 47.8865 17.544 47.3745 17.304C46.8625 17.048 46.4785 16.792 46.2225 16.536L47.4945 14.256C47.6705 14.4 47.9425 14.592 48.3105 14.832C48.6945 15.056 49.1345 15.256 49.6305 15.432C50.1265 15.608 50.6225 15.696 51.1185 15.696C51.9345 15.696 52.6145 15.504 53.1585 15.12C53.7185 14.736 53.9985 14.176 53.9985 13.44C53.9985 12.832 53.8385 12.328 53.5185 11.928C53.1985 11.528 52.7745 11.176 52.2465 10.872C51.7345 10.568 51.1745 10.28 50.5665 10.008C49.9745 9.72 49.4065 9.4 48.8625 9.048C48.2385 8.632 47.6945 8.08 47.2305 7.392C46.7665 6.704 46.5345 5.816 46.5345 4.728C46.5345 3.656 46.7745 2.776 47.2545 2.088C47.7505 1.4 48.3985 0.888 49.1985 0.552C50.0145 0.2 50.9025 0.0239997 51.8625 0.0239997C52.6305 0.0239997 53.2865 0.104 53.8305 0.263999C54.3745 0.424 54.8305 0.616001 55.1985 0.840001C55.5665 1.064 55.8545 1.264 56.0625 1.44L54.7905 3.624C54.5185 3.336 54.1105 3.072 53.5665 2.832C53.0225 2.576 52.4145 2.448 51.7425 2.448C50.9585 2.448 50.3345 2.632 49.8705 3C49.4065 3.352 49.1745 3.88 49.1745 4.584C49.1745 5.208 49.3825 5.744 49.7985 6.192C50.2145 6.624 50.7425 7.024 51.3825 7.392C52.0385 7.744 52.7105 8.104 53.3985 8.472C54.0865 8.84 54.6945 9.272 55.2225 9.768C55.6545 10.152 56.0225 10.632 56.3265 11.208C56.6305 11.784 56.7825 12.432 56.7825 13.152C56.7825 14.24 56.5265 15.16 56.0145 15.912C55.5185 16.664 54.8465 17.232 53.9985 17.616C53.1505 17.984 52.1905 18.168 51.1185 18.168Z" fill="black"/>
<path d="M62.3053 17.928V2.64H57.7933V0.288001H69.5293V2.64H64.9693V17.928H62.3053Z" fill="black"/>
<path d="M70.9459 17.928V6.912H73.6339V17.928H70.9459ZM72.2899 4.848C71.7939 4.848 71.3779 4.68 71.0419 4.344C70.7219 4.008 70.5619 3.592 70.5619 3.096C70.5619 2.648 70.7219 2.264 71.0419 1.944C71.3779 1.624 71.7939 1.464 72.2899 1.464C72.7859 1.464 73.1939 1.624 73.5139 1.944C73.8499 2.264 74.0179 2.648 74.0179 3.096C74.0179 3.592 73.8499 4.008 73.5139 4.344C73.1939 4.68 72.7859 4.848 72.2899 4.848Z" fill="black"/>
<path d="M89.9751 17.928L79.6551 6.504L79.7271 8.424V17.928H77.0391V0.263999H77.3751L87.7431 11.832L87.6471 9.816V0.288001H90.3351V17.928H89.9751Z" fill="black"/>
<path d="M102.096 18.168C100.896 18.168 99.7604 17.96 98.6884 17.544C97.6324 17.128 96.6964 16.528 95.8804 15.744C95.0644 14.944 94.4164 13.984 93.9364 12.864C93.4724 11.744 93.2404 10.48 93.2404 9.072C93.2404 7.648 93.4724 6.376 93.9364 5.256C94.4164 4.136 95.0644 3.184 95.8804 2.4C96.7124 1.616 97.6564 1.024 98.7124 0.624001C99.7844 0.208 100.912 0 102.096 0C103.28 0 104.4 0.208 105.456 0.624001C106.528 1.024 107.472 1.616 108.288 2.4C109.12 3.184 109.768 4.136 110.232 5.256C110.712 6.376 110.952 7.648 110.952 9.072C110.952 10.48 110.712 11.744 110.232 12.864C109.768 13.984 109.128 14.944 108.312 15.744C107.496 16.528 106.552 17.128 105.48 17.544C104.424 17.96 103.296 18.168 102.096 18.168ZM102.096 15.744C103.184 15.744 104.184 15.488 105.096 14.976C106.008 14.464 106.736 13.72 107.28 12.744C107.824 11.752 108.096 10.536 108.096 9.096C108.096 7.64 107.824 6.424 107.28 5.448C106.736 4.456 106.008 3.712 105.096 3.216C104.2 2.704 103.2 2.448 102.096 2.448C100.992 2.448 99.9844 2.704 99.0724 3.216C98.1764 3.712 97.4564 4.456 96.9124 5.448C96.3684 6.424 96.0964 7.64 96.0964 9.096C96.0964 10.536 96.3764 11.752 96.9364 12.744C97.4964 13.72 98.2324 14.464 99.1444 14.976C100.056 15.488 101.04 15.744 102.096 15.744Z" fill="black"/>
</svg>
